<svg width="51" height="37" viewBox="0 0 51 37" fill="none" xmlns="http://www.w3.org/2000/svg">
<path d="M16.8176 23.5719V22.0298L21.8714 18.4875C22.5127 18.0447 22.9402 17.1745 22.9402 16.3194C22.9402 15.2354 22.0852 14.5025 20.7874 14.5025C19.4895 14.5025 18.6345 15.4797 18.6345 16.9607H16.9092C16.9092 14.5178 18.4666 12.884 20.7874 12.884C23.1845 12.884 24.7724 14.2582 24.7724 16.3194C24.7724 17.6936 24.0395 19.0983 22.9402 19.8311L19.8865 21.9535H24.7571V23.5719H16.8176ZM29.8309 23.7857C27.2047 23.7857 25.7237 21.816 25.7237 18.3348C25.7237 14.8537 27.2047 12.884 29.8309 12.884C32.4723 12.884 33.9533 14.8537 33.9533 18.3348C33.9533 21.816 32.4723 23.7857 29.8309 23.7857ZM29.8309 22.1672C31.3883 22.1672 32.1211 20.6404 32.1211 18.3348C32.1211 15.724 31.205 14.5025 29.8309 14.5025C28.2888 14.5025 27.5559 16.0293 27.5559 18.3348C27.5559 20.9457 28.472 22.1672 29.8309 22.1672Z" fill="white"/>
<rect x="3.39297" y="3.39297" width="44.1086" height="29.6885" rx="14.8442" stroke="#1B1B1B" stroke-width="6.78594"/>
<path d="M32.2332 3.39297C32.2332 5.26686 30.7141 6.78594 28.8403 6.78594H18.2372C11.9129 6.78594 6.78594 11.9129 6.78594 18.2372C6.78594 18.469 6.60257 18.6613 6.37081 18.6613H0.429129C0.193323 18.6613 0 18.473 0 18.2372C0 8.32239 7.91202 0.25536 17.7667 0.00579853L18.2372 0H28.8403C30.7141 0 32.2332 1.51908 32.2332 3.39297Z" fill="#A100FF"/>
<path d="M32.2332 3.39297C32.2332 5.26686 30.7141 6.78594 28.8403 6.78594H18.2372C11.9129 6.78594 6.78594 11.9129 6.78594 18.2372C6.78594 18.469 6.60257 18.6613 6.37081 18.6613H0.429129C0.193323 18.6613 0 18.473 0 18.2372C0 8.32239 7.91202 0.25536 17.7667 0.00579853L18.2372 0H28.8403C30.7141 0 32.2332 1.51908 32.2332 3.39297Z" fill="url(#paint0_linear_131_2599)"/>
<defs>
<linearGradient id="paint0_linear_131_2599" x1="32.2332" y1="2.96885" x2="4.24122" y2="11.8754" gradientUnits="userSpaceOnUse">
<stop stop-color="#CF7CFF"/>
<stop offset="1" stop-color="#CF7CFF" stop-opacity="0"/>
</linearGradient>
</defs>
</svg>
