<svg width="153" height="25" viewBox="0 0 153 25" fill="none" xmlns="http://www.w3.org/2000/svg">
<path d="M11.8935 24.6273C5.24807 24.6273 0.807395 20.1866 0.807395 13.5101C0.807395 6.86459 5.24807 2.45497 11.8935 2.45497C15.5268 2.45497 19.1912 4.87715 21.0544 8.47938L17.1727 9.44204C16.0547 7.48566 13.9431 6.18141 11.8935 6.18141C7.73236 6.18141 4.96858 9.10045 4.96858 13.5101C4.96858 17.9507 7.73236 20.9008 11.8935 20.9008C14.7505 20.9008 17.2037 18.8823 17.9801 15.8391H10.9619V12.1127H22.2965V13.5101C22.2965 20.1866 18.1353 24.6273 11.8935 24.6273ZM31.3685 24.6273C26.5242 24.6273 23.2946 21.3356 23.2946 16.4291C23.2946 11.5226 26.5242 8.23095 31.3685 8.23095C33.2007 8.23095 35.2192 9.0694 36.3992 10.3426V8.6657H40.1257V24.1925H36.3992V22.5156C35.2192 23.7888 33.2007 24.6273 31.3685 24.6273ZM31.7412 21.3356C34.536 21.3356 36.3992 19.3792 36.3992 16.4291C36.3992 13.479 34.536 11.5226 31.7412 11.5226C28.9153 11.5226 27.021 13.479 27.021 16.4291C27.021 19.3792 28.9153 21.3356 31.7412 21.3356ZM42.3695 24.1925V8.6657H46.096V10.0631C47.0276 8.88307 48.3939 8.23095 49.8845 8.23095C51.313 8.23095 52.9588 8.97624 54.0147 10.0942C55.1015 8.97624 56.9648 8.23095 58.6727 8.23095C62.3681 8.23095 64.8524 10.2805 64.8524 13.3548V24.1925H61.1259V13.7274C61.1259 12.3921 60.008 11.5226 58.3001 11.5226C56.5921 11.5226 55.4742 12.3921 55.4742 13.7274V24.1925H51.7477V13.7274C51.7477 12.3921 50.6298 11.5226 48.9219 11.5226C47.2139 11.5226 46.096 12.3921 46.096 13.7274V24.1925H42.3695ZM67.1009 6.30562V2.88972H70.8273V6.30562H67.1009ZM67.1009 24.1925V8.6657H70.8273V24.1925H67.1009ZM80.5755 24.1925V2.88972H84.7367V20.4661H95.0154V24.1925H80.5755ZM102.895 24.6273C98.0507 24.6273 94.8211 21.3356 94.8211 16.4291C94.8211 11.5226 98.0507 8.23095 102.895 8.23095C104.727 8.23095 106.746 9.0694 107.926 10.3426V8.6657H111.652V24.1925H107.926V22.5156C106.746 23.7888 104.727 24.6273 102.895 24.6273ZM103.268 21.3356C106.063 21.3356 107.926 19.3792 107.926 16.4291C107.926 13.479 106.063 11.5226 103.268 11.5226C100.442 11.5226 98.5475 13.479 98.5475 16.4291C98.5475 19.3792 100.442 21.3356 103.268 21.3356ZM122.777 24.6273C120.883 24.6273 118.803 23.7578 117.622 22.4846V24.1925H113.896V2.88972H117.622V10.3736C118.803 9.10045 120.883 8.23095 122.777 8.23095C127.684 8.23095 130.976 11.5226 130.976 16.4291C130.976 21.3356 127.684 24.6273 122.777 24.6273ZM122.405 21.3356C125.324 21.3356 127.249 19.3792 127.249 16.4291C127.249 13.479 125.324 11.5226 122.405 11.5226C119.548 11.5226 117.622 13.479 117.622 16.4291C117.622 19.3792 119.548 21.3356 122.405 21.3356ZM138.569 24.6273C134.377 24.6273 131.489 22.3293 131.365 18.9134H134.874C134.998 20.4661 136.489 21.5219 138.569 21.5219C140.65 21.5219 142.047 20.7145 142.047 19.5034C142.047 18.7581 141.116 18.2302 138.228 17.6713C133.725 16.6465 132.297 15.6217 132.297 13.0443C132.297 10.1563 134.812 8.23095 138.569 8.23095C141.55 8.23095 144.159 9.84574 145.06 12.2679L141.644 13.1064C141.178 12.0505 139.936 11.3363 138.569 11.3363C137.048 11.3363 136.023 11.9574 136.023 12.8579C136.023 13.5101 136.737 13.9138 138.942 14.4106C144.128 15.4975 145.774 16.6775 145.774 19.5034C145.774 22.5777 142.886 24.6273 138.569 24.6273Z" fill="white"/>
<path d="M148.032 10.3348C145.304 10.3348 143.063 8.16644 143.063 5.36619C143.063 2.56594 145.304 0.397606 148.032 0.397606C150.76 0.397606 153.001 2.56594 153.001 5.36619C153.001 8.16644 150.76 10.3348 148.032 10.3348ZM148.032 9.02138C149.798 9.02138 151.539 7.57169 151.539 5.36619C151.539 3.18546 149.798 1.711 148.032 1.711C146.266 1.711 144.525 3.17307 144.525 5.36619C144.525 7.5593 146.266 9.02138 148.032 9.02138ZM148.032 8.12926C146.437 8.12926 145.365 7.02651 145.365 5.36619C145.365 3.71825 146.437 2.6155 148.032 2.6155C149.335 2.6155 150.358 3.48284 150.602 4.77144H149.213C149.043 4.25104 148.568 3.90411 148.032 3.90411C147.289 3.90411 146.802 4.48646 146.802 5.36619C146.802 6.24591 147.289 6.84065 148.032 6.84065C148.568 6.84065 149.043 6.49372 149.213 5.97332H150.602C150.358 7.26193 149.335 8.12926 148.032 8.12926Z" fill="white"/>
</svg>
