<svg width="87" height="87" viewBox="0 0 87 87" fill="none" xmlns="http://www.w3.org/2000/svg">
<path d="M43.0819 86.1638C19.4291 86.1638 0 67.3625 0 43.0819C0 18.8013 19.4291 0 43.0819 0C66.7347 0 86.1638 18.8013 86.1638 43.0819C86.1638 67.3625 66.7347 86.1638 43.0819 86.1638ZM43.0819 74.7756C58.3929 74.7756 73.4927 62.2056 73.4927 43.0819C73.4927 24.1731 58.3929 11.3882 43.0819 11.3882C27.7709 11.3882 12.6712 24.0657 12.6712 43.0819C12.6712 62.0981 27.7709 74.7756 43.0819 74.7756ZM43.0819 67.0402C29.2492 67.0402 19.9571 57.4784 19.9571 43.0819C19.9571 28.7929 29.2492 19.2311 43.0819 19.2311C54.3804 19.2311 63.2502 26.7516 65.362 37.925H53.3244C51.8461 33.4127 47.728 30.4044 43.0819 30.4044C36.6407 30.4044 32.417 35.4539 32.417 43.0819C32.417 50.7099 36.6407 55.8668 43.0819 55.8668C47.728 55.8668 51.8461 52.8586 53.3244 48.3463H65.362C63.2502 59.5197 54.3804 67.0402 43.0819 67.0402Z" fill="white"/>
</svg>
