<svg width="17" height="15" viewBox="0 0 17 15" fill="none" xmlns="http://www.w3.org/2000/svg">
<g clip-path="url(#clip0_791_5215)">
<path d="M15.8161 14.1777C10.6798 14.1777 5.5436 14.1777 0.403056 14.1698C0.291257 14.0517 0.184205 13.9411 0.0752804 13.8323C0.067739 13.8248 0.046252 13.8312 0.03125 13.8312C0.03125 13.6415 0.03125 13.4517 0.0391403 13.2578C0.168437 13.054 0.292972 12.8562 0.410697 12.6544C0.863472 11.8785 1.31567 11.1022 1.76504 10.3243C2.26081 9.46604 2.7516 8.60493 3.2476 7.74682C3.72801 6.91569 4.21457 6.08812 4.69416 5.25652C5.11777 4.52197 5.53326 3.78275 5.95641 3.04794C6.41538 2.25094 6.87544 1.45452 7.34303 0.662564C7.47308 0.442301 7.55887 0.180167 7.82201 0.0631839C7.82356 0.0624931 7.81645 0.0423235 7.81339 0.03125C7.9926 0.03125 8.17181 0.03125 8.3553 0.039198C8.45874 0.140417 8.58532 0.21732 8.65242 0.329728C8.9819 0.881654 9.29333 1.44431 9.61535 2.00074C10.0706 2.78733 10.5307 3.57109 10.9863 4.35743C11.2399 4.79498 11.4877 5.23582 11.7398 5.67423C12.0374 6.19184 12.3367 6.70848 12.6355 7.22543C12.8833 7.65412 13.131 8.08284 13.3793 8.51118C13.6765 9.02372 13.9755 9.53519 14.2716 10.0484C14.5626 10.5528 14.8508 11.0589 15.1405 11.5641C15.4503 12.1043 15.7598 12.6446 16.0719 13.1834C16.0911 13.2167 16.1319 13.2374 16.1627 13.264C16.1627 13.4433 16.1627 13.6225 16.1549 13.806C16.0543 13.9093 15.9609 14.0079 15.8687 14.1076C15.849 14.1289 15.8335 14.1542 15.8161 14.1777ZM7.25418 6.62252C7.32513 7.57387 7.39737 8.52514 7.4664 9.47663C7.49375 9.85358 7.75836 10.1353 8.09573 10.1373C8.41785 10.1392 8.69813 9.86753 8.72528 9.51037C8.81387 8.34482 8.89991 7.17905 8.98149 6.01298C9.01163 5.58214 8.82325 5.32484 8.40136 5.23201C8.24073 5.19667 8.0662 5.18738 7.90308 5.20745C7.42198 5.26663 7.19255 5.54946 7.21476 6.02824C7.2235 6.2167 7.23938 6.40483 7.25418 6.62252ZM8.59506 10.8306C8.35422 10.5775 8.0456 10.5226 7.77224 10.6843C7.51521 10.8364 7.39499 11.15 7.48977 11.4323C7.57435 11.6842 7.75382 11.8357 8.0138 11.8706C8.28118 11.9064 8.50139 11.8042 8.64148 11.5713C8.78754 11.3285 8.77208 11.0831 8.59506 10.8306Z" fill="#FFBB33"/>
<path d="M7.25367 6.60806C7.23996 6.40507 7.22408 6.21694 7.21534 6.02847C7.19313 5.5497 7.42255 5.26687 7.90366 5.20769C8.06678 5.18762 8.2413 5.19691 8.40193 5.23225C8.82382 5.32508 9.01221 5.58237 8.98206 6.01322C8.90048 7.17929 8.81445 8.34505 8.72585 9.51061C8.6987 9.86777 8.41842 10.1395 8.09631 10.1376C7.75893 10.1356 7.49433 9.85382 7.46698 9.47687C7.39795 8.52537 7.32571 7.57411 7.25367 6.60806Z" fill="black"/>
<path d="M8.60231 10.8404C8.77255 11.0836 8.788 11.3289 8.64195 11.5718C8.50186 11.8047 8.28165 11.9069 8.01427 11.871C7.75428 11.8362 7.57481 11.6847 7.49023 11.4327C7.39546 11.1504 7.51568 10.8369 7.77271 10.6848C8.04607 10.5231 8.35469 10.5779 8.60231 10.8404Z" fill="black"/>
</g>
<defs>
<clipPath id="clip0_791_5215">
<rect width="16.1314" height="14.1465" fill="white"/>
</clipPath>
</defs>
</svg>
