<svg width="21" height="15" viewBox="0 0 21 15" fill="none" xmlns="http://www.w3.org/2000/svg">
<path d="M1.17053 0H19.3606C19.6716 0.00307755 19.9688 0.128534 20.1879 0.349192C20.407 0.569851 20.5303 0.867943 20.5312 1.1789V13.6802C20.5329 13.9187 20.4617 14.1521 20.3272 14.3491C20.303 14.4122 20.2653 14.4692 20.2168 14.5163C20.1842 14.5475 20.147 14.5734 20.1064 14.5932C19.8954 14.7712 19.6283 14.869 19.3523 14.8691H1.17053C0.861034 14.8661 0.565073 14.7418 0.346213 14.5229C0.127352 14.3041 0.00304948 14.0081 0 13.6986V1.1789C0.000864412 0.867943 0.124202 0.569851 0.343296 0.349192C0.562389 0.128534 0.859596 0.00307755 1.17053 0ZM1.12037 13.1836L7.27069 6.79244L1.12037 1.59527V13.1836ZM8.19708 7.59008L1.62537 13.9544H18.8489L12.5699 7.59008L10.7305 9.13017C10.6494 9.19748 10.5474 9.23433 10.442 9.23433C10.3366 9.23433 10.2346 9.19748 10.1535 9.13017L8.19708 7.59008ZM13.4812 6.78074L19.4108 13.2354V1.53842L13.4812 6.78074ZM1.69895 0.904656L10.4244 7.97635L18.7653 0.904656H1.69895Z" fill="white"/>
</svg>
