<svg width="62" height="19" viewBox="0 0 62 19" fill="none" xmlns="http://www.w3.org/2000/svg">
<path d="M8.92016 18.4223C3.93605 18.4223 0.605546 15.0918 0.605546 10.0844C0.605546 5.10024 3.93605 1.79303 8.92016 1.79303C11.6451 1.79303 14.3934 3.60967 15.7908 6.31133L12.8795 7.03333C12.0411 5.56605 10.4573 4.58786 8.92016 4.58786C5.79927 4.58786 3.72644 6.77714 3.72644 10.0844C3.72644 13.4149 5.79927 15.6274 8.92016 15.6274C11.0629 15.6274 12.9028 14.1136 13.485 11.8311H8.22145V9.03629H16.7224V10.0844C16.7224 15.0918 13.6015 18.4223 8.92016 18.4223ZM23.5264 18.4223C19.8931 18.4223 17.4709 15.9535 17.4709 12.2736C17.4709 8.59378 19.8931 6.12501 23.5264 6.12501C24.9005 6.12501 26.4144 6.75385 27.2994 7.70875V6.45108H30.0943V18.0962H27.2994V16.8385C26.4144 17.7934 24.9005 18.4223 23.5264 18.4223ZM23.8059 15.9535C25.902 15.9535 27.2994 14.4862 27.2994 12.2736C27.2994 10.0611 25.902 8.59378 23.8059 8.59378C21.6865 8.59378 20.2658 10.0611 20.2658 12.2736C20.2658 14.4862 21.6865 15.9535 23.8059 15.9535ZM31.7772 18.0962V6.45108H34.572V7.49914C35.2707 6.61411 36.2955 6.12501 37.4134 6.12501C38.4847 6.12501 39.7191 6.68398 40.511 7.52243C41.3262 6.68398 42.7236 6.12501 44.0045 6.12501C46.7761 6.12501 48.6393 7.66217 48.6393 9.9679V18.0962H45.8445V10.2474C45.8445 9.2459 45.006 8.59378 43.725 8.59378C42.4441 8.59378 41.6056 9.2459 41.6056 10.2474V18.0962H38.8108V10.2474C38.8108 9.2459 37.9724 8.59378 36.6914 8.59378C35.4104 8.59378 34.572 9.2459 34.572 10.2474V18.0962H31.7772ZM50.3256 4.68102V2.11909H53.1205V4.68102H50.3256ZM50.3256 18.0962V6.45108H53.1205V18.0962H50.3256Z" fill="white"/>
<path d="M57.7264 8.90453C55.6805 8.90453 54 7.27828 54 5.1781C54 3.07791 55.6805 1.45166 57.7264 1.45166C59.7723 1.45166 61.4529 3.07791 61.4529 5.1781C61.4529 7.27828 59.7723 8.90453 57.7264 8.90453ZM57.7264 7.91949C59.0508 7.91949 60.3569 6.83223 60.3569 5.1781C60.3569 3.54255 59.0508 2.4367 57.7264 2.4367C56.4021 2.4367 55.096 3.53326 55.096 5.1781C55.096 6.82293 56.4021 7.91949 57.7264 7.91949ZM57.7264 7.2504C56.53 7.2504 55.7262 6.42334 55.7262 5.1781C55.7262 3.94215 56.53 3.11508 57.7264 3.11508C58.7037 3.11508 59.4709 3.76558 59.6536 4.73204H58.6124C58.4845 4.34174 58.1283 4.08154 57.7264 4.08154C57.1693 4.08154 56.804 4.5183 56.804 5.1781C56.804 5.83789 57.1693 6.28395 57.7264 6.28395C58.1283 6.28395 58.4845 6.02375 58.6124 5.63345H59.6536C59.4709 6.5999 58.7037 7.2504 57.7264 7.2504Z" fill="white"/>
</svg>
