<svg width="15" height="15" viewBox="0 0 15 15" fill="none" xmlns="http://www.w3.org/2000/svg">
<path d="M7.11111 1.28514C8.99599 1.28514 9.25301 1.28514 10.0241 1.28514C10.7095 1.28514 11.0522 1.45649 11.3092 1.54217C11.6519 1.71352 11.909 1.7992 12.166 2.05623C12.423 2.31325 12.5944 2.57028 12.6801 2.91299C12.7657 3.17001 12.8514 3.51272 12.9371 4.19813C12.9371 4.96921 12.9371 5.14056 12.9371 7.11111C12.9371 9.08166 12.9371 9.25301 12.9371 10.0241C12.9371 10.7095 12.7657 11.0522 12.6801 11.3092C12.5087 11.6519 12.423 11.909 12.166 12.166C11.909 12.423 11.6519 12.5944 11.3092 12.6801C11.0522 12.7657 10.7095 12.8514 10.0241 12.9371C9.25301 12.9371 9.08166 12.9371 7.11111 12.9371C5.14056 12.9371 4.96921 12.9371 4.19813 12.9371C3.51272 12.9371 3.17001 12.7657 2.91299 12.6801C2.57028 12.5087 2.31325 12.423 2.05623 12.166C1.7992 11.909 1.62785 11.6519 1.54217 11.3092C1.45649 11.0522 1.37082 10.7095 1.28514 10.0241C1.28514 9.25301 1.28514 9.08166 1.28514 7.11111C1.28514 5.14056 1.28514 4.96921 1.28514 4.19813C1.28514 3.51272 1.45649 3.17001 1.54217 2.91299C1.71352 2.57028 1.7992 2.31325 2.05623 2.05623C2.31325 1.7992 2.57028 1.62785 2.91299 1.54217C3.17001 1.45649 3.51272 1.37082 4.19813 1.28514C4.96921 1.28514 5.22624 1.28514 7.11111 1.28514ZM7.11111 0C5.14056 0 4.96921 0 4.19813 0C3.42704 0 2.91299 0.171353 2.48461 0.342705C2.05623 0.514057 1.62785 0.771085 1.19947 1.19947C0.771085 1.62785 0.599733 1.97055 0.342705 2.48461C0.171353 2.91299 0.085676 3.42704 0 4.19813C0 4.96921 0 5.22624 0 7.11111C0 9.08166 0 9.25301 0 10.0241C0 10.7952 0.171353 11.3092 0.342705 11.7376C0.514057 12.166 0.771085 12.5944 1.19947 13.0228C1.62785 13.4511 1.97055 13.6225 2.48461 13.8795C2.91299 14.0509 3.42704 14.1365 4.19813 14.2222C4.96921 14.2222 5.22624 14.2222 7.11111 14.2222C8.99599 14.2222 9.25301 14.2222 10.0241 14.2222C10.7952 14.2222 11.3092 14.0509 11.7376 13.8795C12.166 13.7082 12.5944 13.4511 13.0228 13.0228C13.4511 12.5944 13.6225 12.2517 13.8795 11.7376C14.0509 11.3092 14.1365 10.7952 14.2222 10.0241C14.2222 9.25301 14.2222 8.99599 14.2222 7.11111C14.2222 5.22624 14.2222 4.96921 14.2222 4.19813C14.2222 3.42704 14.0509 2.91299 13.8795 2.48461C13.7082 2.05623 13.4511 1.62785 13.0228 1.19947C12.5944 0.771085 12.2517 0.599733 11.7376 0.342705C11.3092 0.171353 10.7952 0.085676 10.0241 0C9.25301 0 9.08166 0 7.11111 0Z" fill="white"/>
<path d="M7.11111 3.42704C5.05489 3.42704 3.42704 5.05489 3.42704 7.11111C3.42704 9.16734 5.05489 10.7952 7.11111 10.7952C9.16734 10.7952 10.7952 9.16734 10.7952 7.11111C10.7952 5.05489 9.16734 3.42704 7.11111 3.42704ZM7.11111 9.51004C5.82597 9.51004 4.71218 8.48193 4.71218 7.11111C4.71218 5.82597 5.7403 4.71218 7.11111 4.71218C8.39625 4.71218 9.51004 5.7403 9.51004 7.11111C9.51004 8.39625 8.39625 9.51004 7.11111 9.51004Z" fill="white"/>
<path d="M10.8809 4.19813C11.354 4.19813 11.7376 3.81454 11.7376 3.34137C11.7376 2.86819 11.354 2.48461 10.8809 2.48461C10.4077 2.48461 10.0241 2.86819 10.0241 3.34137C10.0241 3.81454 10.4077 4.19813 10.8809 4.19813Z" fill="white"/>
</svg>
