<svg width="19" height="16" viewBox="0 0 19 16" fill="none" xmlns="http://www.w3.org/2000/svg">
<g clip-path="url(#clip0_791_5453)">
<path d="M10.136 0.457648C10.335 0.572077 10.5556 0.730597 10.6187 0.962879C10.6239 0.985885 10.629 1.00889 10.6344 1.03259C10.6581 1.03226 10.6818 1.03193 10.7062 1.03159C10.956 1.02827 11.2058 1.02606 11.4556 1.02444C11.5484 1.0237 11.6412 1.02269 11.7341 1.0214C12.4086 1.01223 12.9952 1.04578 13.6204 1.31543C13.9437 1.45231 14.2424 1.52524 14.5945 1.52625C14.655 1.52718 14.7154 1.52812 14.7759 1.52908C14.8696 1.53014 14.9634 1.53104 15.0572 1.53173C15.1487 1.53253 15.2402 1.534 15.3318 1.53552C15.3596 1.53553 15.3874 1.53553 15.4161 1.53554C15.5927 1.53885 15.7152 1.56828 15.8645 1.66318C16.0731 1.93875 16.2036 2.27379 16.3491 2.58587C16.3773 2.64613 16.4056 2.70638 16.4339 2.76663C16.6301 3.18524 16.8245 3.60472 17.0176 4.02482C17.1574 4.32889 17.2985 4.63231 17.4396 4.93578C17.5703 5.21715 17.7006 5.49875 17.8305 5.78052C17.8595 5.78183 17.8886 5.78315 17.9185 5.7845C18.1383 5.79589 18.2914 5.81327 18.4611 5.96598C18.5705 6.09372 18.5941 6.21242 18.5874 6.38009C18.4752 7.16313 17.9994 7.85891 17.3854 8.33994C16.6379 8.85364 15.7875 9.02942 14.8997 8.87434C14.3805 8.76817 13.9318 8.52923 13.5277 8.19157C13.5029 8.17226 13.4782 8.15294 13.4528 8.13303C12.9446 7.72012 12.6123 7.08557 12.4891 6.44819C12.4802 6.25175 12.4896 6.13209 12.6003 5.96598C12.7469 5.82319 12.862 5.8088 13.0594 5.80834C13.1289 5.81071 13.1985 5.81356 13.268 5.81761C13.2732 5.78048 13.2732 5.78048 13.2784 5.74259C13.3124 5.60192 13.3722 5.47816 13.4352 5.34873C13.4485 5.32101 13.4618 5.29329 13.4754 5.26473C13.504 5.20498 13.5327 5.14528 13.5615 5.08561C13.6379 4.92707 13.7136 4.76821 13.7893 4.60933C13.8048 4.57702 13.8202 4.54472 13.836 4.51144C14.0537 4.05405 14.2612 3.59206 14.4694 3.13037C14.5624 2.92518 14.657 2.7207 14.7517 2.51632C14.6957 2.51807 14.6957 2.51807 14.6386 2.51985C13.9904 2.53658 13.4469 2.33143 12.8467 2.10429C12.6856 2.04987 12.5348 2.02938 12.3651 2.02649C12.3265 2.02575 12.2879 2.02501 12.2482 2.02425C12.2069 2.02363 12.1657 2.02301 12.1232 2.02237C12.0594 2.02121 12.0594 2.02121 11.9943 2.02004C11.8586 2.01761 11.7229 2.01542 11.5872 2.01324C11.4952 2.01164 11.4031 2.01002 11.311 2.00839C11.0855 2.00442 10.8599 2.00064 10.6344 1.99701C10.6235 2.0257 10.6125 2.05439 10.6012 2.08395C10.5119 2.29869 10.3502 2.43877 10.1522 2.55341C10.1277 2.55341 10.1032 2.55341 10.078 2.55341C10.0724 3.40176 10.0694 4.25008 10.0695 5.09845C10.0694 5.49239 10.0685 5.88631 10.0657 6.28024C10.0632 6.62373 10.0623 6.96719 10.0632 7.31069C10.0637 7.49247 10.0634 7.67417 10.0612 7.85594C10.0591 8.02732 10.0592 8.19859 10.0608 8.36998C10.061 8.4326 10.0605 8.49523 10.0592 8.55783C10.0462 8.92936 10.0462 8.92936 10.216 9.24525C10.2756 9.30356 10.337 9.35862 10.4001 9.41321C10.5207 9.5185 10.5913 9.58735 10.6137 9.74851C10.6156 9.83832 10.6156 9.83832 10.6107 9.93122C10.6108 9.98179 10.6108 9.98179 10.6109 10.0334C10.6106 10.1431 10.6072 10.2524 10.6037 10.3621C10.6029 10.4388 10.6022 10.5155 10.6018 10.5922C10.6001 10.7928 10.5957 10.9932 10.5908 11.1937C10.5862 11.3988 10.5842 11.604 10.582 11.8092C10.5772 12.2107 10.5696 12.6122 10.5602 13.0137C10.592 13.0133 10.592 13.0133 10.6244 13.0129C10.8459 13.0105 11.0673 13.0088 11.2888 13.0076C11.3713 13.007 11.4538 13.0063 11.5364 13.0053C11.6553 13.0039 11.7743 13.0033 11.8933 13.0028C11.9299 13.0022 11.9665 13.0017 12.0042 13.0011C12.3324 13.001 12.5789 13.073 12.8234 13.3006C12.9726 13.4708 13.0762 13.6692 13.1846 13.8668C13.2085 13.9095 13.2325 13.9521 13.2571 13.9961C13.303 14.0778 13.3486 14.1596 13.3939 14.2417C13.4429 14.33 13.4932 14.4173 13.5445 14.5044C13.6019 14.6087 13.6019 14.6087 13.6019 14.6829C10.9579 14.6829 8.31385 14.6829 5.58973 14.6829C5.64479 14.5177 5.69174 14.4005 5.77694 14.2543C5.79912 14.2162 5.82131 14.1781 5.84417 14.1388C5.86731 14.0995 5.89045 14.0603 5.9143 14.0198C5.93687 13.9809 5.95944 13.9419 5.98269 13.9017C6.43656 13.1269 6.43656 13.1269 6.80904 13.0279C6.96976 12.9989 7.13195 13.0047 7.29471 13.0064C7.33304 13.0065 7.37137 13.0066 7.41086 13.0068C7.53255 13.0072 7.65423 13.0081 7.77591 13.009C7.85872 13.0094 7.94153 13.0098 8.02433 13.0101C8.22668 13.0109 8.42903 13.0121 8.63137 13.0137C8.63038 12.9715 8.62939 12.9292 8.62838 12.8857C8.61932 12.4863 8.61267 12.0869 8.60831 11.6874C8.60599 11.482 8.60286 11.2768 8.59779 11.0715C8.59293 10.873 8.59029 10.6747 8.58914 10.4762C8.58832 10.4008 8.58673 10.3253 8.58431 10.2499C8.58104 10.1436 8.58063 10.0376 8.58084 9.93122C8.57924 9.90056 8.57764 9.86991 8.57599 9.83832C8.57956 9.66565 8.60609 9.58886 8.73197 9.46517C8.77248 9.42982 8.81307 9.39454 8.85372 9.35934C9.01064 9.21872 9.10195 9.10993 9.1271 8.8968C9.13482 8.75277 9.13354 8.60982 9.13043 8.46568C9.13067 8.40093 9.1311 8.33618 9.13172 8.27143C9.13283 8.09691 9.13123 7.92251 9.12911 7.74801C9.12736 7.56518 9.12815 7.38237 9.12866 7.19954C9.12924 6.8539 9.12757 6.50832 9.12507 6.16269C9.12233 5.76897 9.12213 5.37526 9.12214 4.98153C9.12209 4.17214 9.11889 3.36279 9.11358 2.55341C9.07119 2.53763 9.07119 2.53763 9.02795 2.52153C8.8083 2.42845 8.67474 2.27467 8.55719 2.0712C8.55719 2.04672 8.55719 2.02224 8.55719 1.99701C8.29198 1.99857 8.02681 2.00127 7.76162 2.00471C7.67162 2.00575 7.58161 2.00654 7.49161 2.00707C6.78643 2.00725 6.78643 2.00725 6.10904 2.18248C6.0603 2.19994 6.0603 2.19994 6.01058 2.21776C5.92305 2.24951 5.8364 2.283 5.7497 2.31694C5.39511 2.45042 5.0869 2.5203 4.70587 2.51762C4.68021 2.51753 4.65455 2.51743 4.62812 2.51734C4.56536 2.51709 4.5026 2.51672 4.43984 2.51632C4.45193 2.54234 4.46401 2.56837 4.47646 2.59518C4.51323 2.67437 4.54999 2.75356 4.58676 2.83275C4.63011 2.92613 4.67347 3.0195 4.71682 3.11287C4.82564 3.34724 4.93445 3.58162 5.04319 3.81603C5.06265 3.85798 5.08212 3.89993 5.10218 3.94315C5.14136 4.0276 5.18052 4.11207 5.21965 4.19655C5.31675 4.40595 5.41428 4.61512 5.51292 4.82379C5.5616 4.92679 5.61014 5.02985 5.65867 5.13292C5.68211 5.18259 5.70564 5.23222 5.72924 5.28181C5.76199 5.35064 5.79448 5.41958 5.82693 5.48855C5.84561 5.52798 5.8643 5.56741 5.88355 5.60803C5.92357 5.70633 5.92357 5.70633 5.92357 5.81761C5.95312 5.81589 5.98267 5.81417 6.01312 5.81239C6.33334 5.80149 6.33334 5.80149 6.50083 5.87789C6.63658 6.01015 6.69803 6.11729 6.71006 6.30794C6.70196 6.45883 6.67044 6.59083 6.6237 6.73335C6.61105 6.77225 6.61105 6.77225 6.59815 6.81193C6.33261 7.60241 5.79714 8.23343 5.05511 8.61525C4.30727 8.97974 3.46536 9.02588 2.6756 8.77811C1.87578 8.50245 1.2791 7.96726 0.878902 7.22715C0.719241 6.89365 0.562617 6.529 0.619249 6.15145C0.701133 5.98768 0.782615 5.88652 0.953088 5.81761C0.982207 5.82102 1.01133 5.82442 1.04133 5.82793C1.16878 5.83895 1.24292 5.83174 1.36111 5.78052C1.51914 5.59915 1.60026 5.35255 1.69263 5.13371C1.72149 5.06868 1.7505 5.00373 1.77967 4.93884C1.83755 4.80951 1.8946 4.67987 1.95087 4.54983C2.05064 4.31973 2.15671 4.09277 2.26294 3.86558C2.29783 3.78983 2.33265 3.71405 2.36741 3.63824C2.52556 3.29381 2.68525 2.95009 2.84542 2.60659C2.91336 2.46071 2.98037 2.31451 3.04595 2.16756C3.06584 2.12359 3.06584 2.12359 3.08613 2.07874C3.10968 2.02658 3.13288 1.97426 3.1556 1.92173C3.22488 1.76968 3.29876 1.68086 3.43833 1.58899C3.57507 1.54341 3.70258 1.54545 3.84505 1.54407C3.90521 1.54303 3.96536 1.54197 4.02552 1.54088C4.11975 1.53937 4.21398 1.538 4.30822 1.53701C4.84039 1.53095 5.28244 1.45154 5.7736 1.24052C6.36825 0.996422 6.95581 1.01909 7.58813 1.02564C7.68226 1.0262 7.77639 1.0267 7.87053 1.02716C8.09942 1.02838 8.3283 1.03023 8.55719 1.03259C8.5686 1.00337 8.58001 0.974156 8.59176 0.944052C8.70184 0.674698 8.91078 0.525571 9.17009 0.40621C9.49572 0.301937 9.8238 0.315438 10.136 0.457648ZM3.6238 3.22109C3.34237 3.82222 3.06215 4.42391 2.78356 5.02635C2.75326 5.09186 2.72294 5.15735 2.69259 5.22283C2.64986 5.31504 2.60722 5.4073 2.56461 5.49957C2.55165 5.52749 2.5387 5.55541 2.52535 5.58418C2.46393 5.69656 2.46393 5.69656 2.43681 5.81761C3.2447 5.81761 4.05259 5.81761 4.88496 5.81761C4.66491 5.3286 4.44258 4.84162 4.21245 4.35743C4.03395 3.98155 3.86265 3.60324 3.69798 3.22109C3.6735 3.22109 3.64902 3.22109 3.6238 3.22109ZM15.5307 3.22109C15.1801 3.91306 14.8472 4.61361 14.5199 5.31685C14.5091 5.33995 14.4984 5.36304 14.4873 5.38683C14.4569 5.45195 14.4267 5.51712 14.3965 5.5823C14.3791 5.61972 14.3617 5.65713 14.3438 5.69568C14.3041 5.77074 14.3041 5.77074 14.3066 5.81761C15.1145 5.81761 15.9224 5.81761 16.7548 5.81761C16.5934 5.44869 16.4309 5.0823 16.2589 4.71851C16.1984 4.59068 16.1382 4.46272 16.0781 4.33475C16.0662 4.30947 16.0543 4.28418 16.0421 4.25813C15.8806 3.914 15.7237 3.56777 15.5678 3.22109C15.5556 3.22109 15.5433 3.22109 15.5307 3.22109Z" fill="white"/>
</g>
<defs>
<clipPath id="clip0_791_5453">
<rect width="18.9917" height="15.1934" fill="white"/>
</clipPath>
</defs>
</svg>
