<svg width="15" height="12" viewBox="0 0 15 12" fill="none" xmlns="http://www.w3.org/2000/svg">
<path d="M0.977704 4.97464C4.79544 3.34389 7.3412 2.26881 8.61498 1.74938C12.2519 0.266306 13.0076 0.00868013 13.5001 8.24728e-05C13.6085 -0.00169783 13.8507 0.0246246 14.0076 0.149448C14.1401 0.254847 14.1766 0.397226 14.194 0.497156C14.2114 0.597086 14.2332 0.824728 14.2159 1.0026C14.0188 3.03282 13.166 7.95961 12.7322 10.2335C12.5486 11.1957 12.1871 11.5183 11.8372 11.5498C11.0767 11.6184 10.4992 11.0571 9.76261 10.5837C8.60999 9.84294 7.95884 9.38182 6.84003 8.65898C5.54704 7.82362 6.38523 7.36449 7.1221 6.61414C7.31494 6.41777 10.6658 3.42966 10.7306 3.15859C10.7387 3.12469 10.7462 2.99832 10.6697 2.93159C10.5931 2.86486 10.4801 2.88768 10.3985 2.90583C10.2829 2.93155 8.4416 4.12475 4.87457 6.48543C4.35192 6.83729 3.87852 7.00873 3.45436 6.99975C2.98677 6.98984 2.08731 6.74054 1.41865 6.52745C0.598514 6.26608 -0.0533141 6.12789 0.00344547 5.684C0.0330093 5.45279 0.357762 5.21634 0.977704 4.97464Z" fill="white"/>
</svg>
