<svg width="20" height="15" viewBox="0 0 20 15" fill="none" xmlns="http://www.w3.org/2000/svg">
<path d="M19.0667 2.15873C18.8222 1.26984 18.2111 0.634921 17.3556 0.380953C15.8889 2.27065e-07 9.65555 0 9.65555 0C9.65555 0 3.54445 2.27065e-07 1.95556 0.380953C1.10001 0.634921 0.488885 1.26984 0.244441 2.15873C-3.73357e-06 3.80952 0 7.11111 0 7.11111C0 7.11111 3.71536e-06 10.4127 0.36667 12.0635C0.611115 12.9524 1.22222 13.5873 2.07777 13.8413C3.54444 14.2222 9.77778 14.2222 9.77778 14.2222C9.77778 14.2222 15.8889 14.2222 17.4778 13.8413C18.3333 13.5873 18.9445 12.9524 19.1889 12.0635C19.5556 10.4127 19.5556 7.11111 19.5556 7.11111C19.5556 7.11111 19.5556 3.80952 19.0667 2.15873ZM7.82221 10.1587V4.06349L12.9556 7.11111L7.82221 10.1587Z" fill="white"/>
</svg>
